<svg xmlns="http://www.w3.org/2000/svg" width="805" height="600"><rect width="805" height="600" x="0" y="0" fill="#FFFFFF" id="backgorund"/><g id="viz"><clipPath id="serieClipPath"><rect x="-50" y="-10" width="805" height="600"/></clipPath><g transform="translate(0,0)"><g transform="translate(50,10)" clip-path="url(#serieClipPath)"><g id="axis"><g transform="translate(0,570)" fill="none" font-size="10" font-family="sans-serif" text-anchor="middle"><path class="domain" stroke="currentColor" d="M0,6V0H740V6"/><g class="tick" opacity="1" transform="translate(0,0)"><line stroke="currentColor" y2="6"/><text fill="currentColor" y="9" dy="0.71em">Thu 13</text></g><g class="tick" opacity="1" transform="translate(51.03448275862069,0)"><line stroke="currentColor" y2="6"/><text fill="currentColor" y="9" dy="0.71em">Sat 15</text></g><g class="tick" opacity="1" transform="translate(102.06896551724138,0)"><line stroke="currentColor" y2="6"/><text fill="currentColor" y="9" dy="0.71em">Mon 17</text></g><g class="tick" opacity="1" transform="translate(153.10344827586206,0)"><line stroke="currentColor" y2="6"/><text fill="currentColor" y="9" dy="0.71em">Wed 19</text></g><g class="tick" opacity="1" transform="translate(204.13793103448276,0)"><line stroke="currentColor" y2="6"/><text fill="currentColor" y="9" dy="0.71em">Fri 21</text></g><g class="tick" opacity="1" transform="translate(255.17241379310346,0)"><line stroke="currentColor" y2="6"/><text fill="currentColor" y="9" dy="0.71em">Oct 23</text></g><g class="tick" opacity="1" transform="translate(306.2068965517241,0)"><line stroke="currentColor" y2="6"/><text fill="currentColor" y="9" dy="0.71em">Tue 25</text></g><g class="tick" opacity="1" transform="translate(357.2413793103448,0)"><line stroke="currentColor" y2="6"/><text fill="currentColor" y="9" dy="0.71em">Thu 27</text></g><g class="tick" opacity="1" transform="translate(408.2758620689655,0)"><line stroke="currentColor" y2="6"/><text fill="currentColor" y="9" dy="0.71em">Sat 29</text></g><g class="tick" opacity="1" transform="translate(459.3103448275862,0)"><line stroke="currentColor" y2="6"/><text fill="currentColor" y="9" dy="0.71em">Mon 31</text></g><g class="tick" opacity="1" transform="translate(484.8275862068965,0)"><line stroke="currentColor" y2="6"/><text fill="currentColor" y="9" dy="0.71em">November</text></g><g class="tick" opacity="1" transform="translate(535.8620689655172,0)"><line stroke="currentColor" y2="6"/><text fill="currentColor" y="9" dy="0.71em">Thu 03</text></g><g class="tick" opacity="1" transform="translate(586.8965517241379,0)"><line stroke="currentColor" y2="6"/><text fill="currentColor" y="9" dy="0.71em">Sat 05</text></g><g class="tick" opacity="1" transform="translate(637.9310344827586,0)"><line stroke="currentColor" y2="6"/><text fill="currentColor" y="9" dy="0.71em">Mon 07</text></g><g class="tick" opacity="1" transform="translate(688.9655172413793,0)"><line stroke="currentColor" y2="6"/><text fill="currentColor" y="9" dy="0.71em">Wed 09</text></g><g class="tick" opacity="1" transform="translate(740,0)"><line stroke="currentColor" y2="6"/><text fill="currentColor" y="9" dy="0.71em">Fri 11</text></g><text x="740" dy="-5" text-anchor="end" style="font-family: Arial, sans-serif; font-size: 12px; fill: rgb(123, 123, 123); font-weight: bold;">日期</text></g><g transform="translate(0,0)" fill="none" font-size="10" font-family="sans-serif" text-anchor="end"><path class="domain" stroke="currentColor" d="M0,570V0"/><g class="tick" opacity="1" transform="translate(0,570)"><line stroke="currentColor" x2="-6"/><text fill="currentColor" x="-9" dy="0.32em">370</text></g><g class="tick" opacity="1" transform="translate(0,498.75)"><line stroke="currentColor" x2="-6"/><text fill="currentColor" x="-9" dy="0.32em">380</text></g><g class="tick" opacity="1" transform="translate(0,427.5)"><line stroke="currentColor" x2="-6"/><text fill="currentColor" x="-9" dy="0.32em">390</text></g><g class="tick" opacity="1" transform="translate(0,356.25)"><line stroke="currentColor" x2="-6"/><text fill="currentColor" x="-9" dy="0.32em">400</text></g><g class="tick" opacity="1" transform="translate(0,285)"><line stroke="currentColor" x2="-6"/><text fill="currentColor" x="-9" dy="0.32em">410</text></g><g class="tick" opacity="1" transform="translate(0,213.75)"><line stroke="currentColor" x2="-6"/><text fill="currentColor" x="-9" dy="0.32em">420</text></g><g class="tick" opacity="1" transform="translate(0,142.5)"><line stroke="currentColor" x2="-6"/><text fill="currentColor" x="-9" dy="0.32em">430</text></g><g class="tick" opacity="1" transform="translate(0,71.25)"><line stroke="currentColor" x2="-6"/><text fill="currentColor" x="-9" dy="0.32em">440</text></g><g class="tick" opacity="1" transform="translate(0,0)"><line stroke="currentColor" x2="-6"/><text fill="currentColor" x="-9" dy="0.32em">450</text></g><text x="4" text-anchor="start" dominant-baseline="hanging" style="font-family: Arial, sans-serif; font-size: 12px; fill: rgb(123, 123, 123); font-weight: bold;">收市*</text></g></g><g id="viz"><g><path d="M0,391.875C12.758620689655173,391.875,12.758620689655173,270.75,25.517241379310345,270.75C63.793103448275865,270.75,63.793103448275865,377.625,102.06896551724138,377.625C114.82758620689656,377.625,114.82758620689656,306.375,127.58620689655173,306.375C140.3448275862069,306.375,140.3448275862069,388.3125,153.10344827586206,388.3125C165.86206896551724,388.3125,165.86206896551724,374.0625,178.6206896551724,374.0625C191.3793103448276,374.0625,191.3793103448276,431.0625,204.13793103448276,431.0625C242.41379310344826,431.0625,242.41379310344826,448.875,280.6896551724138,448.875C293.44827586206895,448.875,293.44827586206895,562.875,306.2068965517241,562.875C318.9655172413793,562.875,318.9655172413793,527.25,331.7241379310345,527.25C344.48275862068965,527.25,344.48275862068965,459.5625,357.2413793103448,459.5625C370,459.5625,370,502.3125,382.7586206896552,502.3125C421.0344827586207,502.3125,421.0344827586207,427.5,459.3103448275862,427.5C472.0689655172414,427.5,472.0689655172414,416.8125,484.8275862068965,416.8125C497.58620689655174,416.8125,497.58620689655174,391.875,510.3448275862069,391.875C523.1034482758621,391.875,523.1034482758621,470.25,535.8620689655172,470.25C548.6206896551723,470.25,548.6206896551723,484.5,561.3793103448276,484.5C599.655172413793,484.5,599.655172413793,427.5,637.9310344827586,427.5C650.6896551724137,427.5,650.6896551724137,363.375,663.448275862069,363.375C676.2068965517242,363.375,676.2068965517242,235.125,688.9655172413793,235.125C701.7241379310344,235.125,701.7241379310344,302.8125,714.4827586206897,302.8125C727.2413793103449,302.8125,727.2413793103449,60.56249999999997,740,60.56249999999997" stroke="#1f77b4" fill="none"/><text font-family="sans-serif" font-size="10" class="labels" x="740" y="60.56249999999997" dx="0" dy="-4" text-anchor="middle"/></g></g></g><text y="4" x="4" style="font-family: Arial, sans-serif; font-size: 12px; fill: black; font-weight: bold; dominant-baseline: hanging;"/></g><g id="grid"><rect x="0" y="0" width="805" height="600" fill="none" stroke="#ccc"/></g></g></svg>
  